<?xml version="1.0" encoding="UTF-8"?>
<svg xmlns="http://www.w3.org/2000/svg" version="1.1" viewBox="0 0 400 400">
  <defs>
    <style>
      .cls-1 {
        fill: #a7d6f3;
      }

      .cls-2 {
        fill: #161616;
      }
    </style>
  </defs>
  <!-- Generator: Adobe Illustrator 28.6.0, SVG Export Plug-In . SVG Version: 1.2.0 Build 709)  -->
  <g>
    <g id="Layer_1">
      <g>
        <g>
          <circle class="cls-1" cx="90.7" cy="167.6" r="11.7"/>
          <circle class="cls-1" cx="151.5" cy="217.2" r="11.7"/>
          <circle class="cls-1" cx="214.1" cy="137.8" r="11.7"/>
          <circle class="cls-1" cx="253.8" cy="205.4" r="11.7" transform="translate(-40.4 63.8) rotate(-13.3)"/>
          <circle class="cls-1" cx="309.3" cy="276.5" r="11.7"/>
          <path class="cls-1" d="M146,206.9l-44.1-35.9c-.9,3.1-3,5.6-5.7,7l44.1,35.9c.9-3.1,3-5.6,5.7-7Z"/>
          <path class="cls-1" d="M243.6,211.2c-1-1.7-1.6-3.6-1.6-5.7s.2-2.2.5-3.3l-81,9.3c1,1.7,1.6,3.6,1.6,5.7s-.2,2.2-.5,3.3l81-9.3Z"/>
          <path class="cls-1" d="M306.2,265.3l-42.2-54.1c-1.5,2.7-4.1,4.8-7.2,5.6l42.2,54.1c1.5-2.7,4.1-4.8,7.2-5.6Z"/>
          <path class="cls-1" d="M204.7,144.7c-1.4-1.9-2.3-4.3-2.3-6.9s0-1.3.2-1.9l-102.5,24.8c1.4,1.9,2.3,4.3,2.3,6.9s0,1.3-.2,1.9l102.5-24.8Z"/>
          <path class="cls-1" d="M223.5,144.8c-1.8,2.5-4.6,4.2-7.8,4.6l28.8,49.1c1.8-2.5,4.6-4.2,7.8-4.6l-28.8-49.1Z"/>
          <path class="cls-1" d="M265.7,273.7h-4.2v-4.2c0-2.6-2.1-4.7-4.7-4.7s-4.7,2.1-4.7,4.7v4.2h-4.2c-2.6,0-4.7,2.1-4.7,4.7s2.1,4.7,4.7,4.7h4.2v4.2c0,2.6,2.1,4.7,4.7,4.7s4.7-2.1,4.7-4.7v-4.2h4.2c2.6,0,4.7-2.1,4.7-4.7,0-2.6-2.1-4.7-4.7-4.7Z"/>
          <path class="cls-1" d="M233.5,297.1h-4.2v-4.2c0-2.6-2.1-4.7-4.7-4.7s-4.7,2.1-4.7,4.7v4.2h-4.2c-2.6,0-4.7,2.1-4.7,4.7s2.1,4.7,4.7,4.7h4.2v4.2c0,2.6,2.1,4.7,4.7,4.7s4.7-2.1,4.7-4.7v-4.2h4.2c2.6,0,4.7-2.1,4.7-4.7,0-2.6-2.1-4.7-4.7-4.7Z"/>
          <path class="cls-1" d="M227.1,267.2c0,3.9-3.2,7.1-7.1,7.1s-7.1-3.2-7.1-7.1,3.2-7.1,7.1-7.1c3.9,0,7.1,3.2,7.1,7.1Z"/>
          <path class="cls-1" d="M218.6,267.2c0-2.9,1.8-5.4,4.2-6.5-.9-.4-1.8-.6-2.8-.6-3.9,0-7.1,3.2-7.1,7.1s3.2,7.1,7.1,7.1,2-.2,2.8-.6c-2.5-1.1-4.2-3.6-4.2-6.5Z"/>
          <path class="cls-1" d="M125.8,261.1h-4.2v-4.2c0-2.6-2.1-4.7-4.7-4.7s-4.7,2.1-4.7,4.7v4.2h-4.2c-2.6,0-4.7,2.1-4.7,4.7s2.1,4.7,4.7,4.7h4.2v4.2c0,2.6,2.1,4.7,4.7,4.7s4.7-2.1,4.7-4.7v-4.2h4.2c2.6,0,4.7-2.1,4.7-4.7,0-2.6-2.1-4.7-4.7-4.7Z"/>
          <path class="cls-1" d="M315.1,93.5h-4.2v-4.2c0-2.6-2.1-4.7-4.7-4.7s-4.7,2.1-4.7,4.7v4.2h-4.2c-2.6,0-4.7,2.1-4.7,4.7s2.1,4.7,4.7,4.7h4.2v4.2c0,2.6,2.1,4.7,4.7,4.7s4.7-2.1,4.7-4.7v-4.2h4.2c2.6,0,4.7-2.1,4.7-4.7s-2.1-4.7-4.7-4.7Z"/>
          <path class="cls-1" d="M282.8,110.7h-4.2v-4.2c0-2.6-2.1-4.7-4.7-4.7s-4.7,2.1-4.7,4.7v4.2h-4.2c-2.6,0-4.7,2.1-4.7,4.7s2.1,4.7,4.7,4.7h4.2v4.2c0,2.6,2.1,4.7,4.7,4.7s4.7-2.1,4.7-4.7v-4.2h4.2c2.6,0,4.7-2.1,4.7-4.7s-2.1-4.7-4.7-4.7Z"/>
          <path class="cls-1" d="M101.8,238.1c0,3.9-3.2,7.1-7.1,7.1s-7.1-3.2-7.1-7.1,3.2-7.1,7.1-7.1c3.9,0,7.1,3.2,7.1,7.1Z"/>
          <path class="cls-1" d="M306.8,137.8c0,3.9-3.2,7.1-7.1,7.1s-7.1-3.2-7.1-7.1,3.2-7.1,7.1-7.1c3.9,0,7.1,3.2,7.1,7.1Z"/>
          <path class="cls-1" d="M86.1,167.6c0-5.2,3.5-9.6,8.2-11.1-1.1-.4-2.3-.6-3.5-.6-6.5,0-11.7,5.2-11.7,11.7s5.2,11.7,11.7,11.7,2.4-.2,3.5-.6c-4.7-1.5-8.2-5.9-8.2-11.1Z"/>
          <path class="cls-1" d="M146.8,217.2c0-5.2,3.5-9.6,8.2-11.1-1.1-.4-2.3-.6-3.5-.6-6.5,0-11.7,5.2-11.7,11.7s5.2,11.7,11.7,11.7,2.4-.2,3.5-.6c-4.7-1.5-8.2-5.9-8.2-11.1Z"/>
          <path class="cls-1" d="M209.4,137.8c0-5.2,3.5-9.6,8.2-11.1-1.1-.4-2.3-.6-3.5-.6-6.5,0-11.7,5.2-11.7,11.7s5.2,11.7,11.7,11.7,2.4-.2,3.5-.6c-4.7-1.5-8.2-5.9-8.2-11.1Z"/>
          <path class="cls-1" d="M249.1,205.4c0-5.2,3.5-9.6,8.2-11.1-1.1-.4-2.3-.6-3.5-.6-6.5,0-11.7,5.2-11.7,11.7s5.2,11.7,11.7,11.7,2.4-.2,3.5-.6c-4.7-1.5-8.2-5.9-8.2-11.1Z"/>
          <path class="cls-1" d="M304.6,276.5c0-5.2,3.5-9.6,8.2-11.1-1.1-.4-2.3-.6-3.5-.6-6.5,0-11.7,5.2-11.7,11.7s5.2,11.7,11.7,11.7,2.4-.2,3.5-.6c-4.7-1.5-8.2-5.9-8.2-11.1Z"/>
          <path class="cls-1" d="M93.3,238.1c0-2.9,1.8-5.4,4.2-6.5-.9-.4-1.8-.6-2.8-.6-3.9,0-7.1,3.2-7.1,7.1s3.2,7.1,7.1,7.1,2-.2,2.8-.6c-2.5-1.1-4.2-3.6-4.2-6.5Z"/>
          <path class="cls-1" d="M298.4,137.8c0-2.9,1.8-5.4,4.2-6.5-.9-.4-1.8-.6-2.8-.6-3.9,0-7.1,3.2-7.1,7.1s3.2,7.1,7.1,7.1,2-.2,2.8-.6c-2.5-1.1-4.2-3.6-4.2-6.5Z"/>
        </g>
        <g>
          <path class="cls-2" d="M90.7,183.9c-9,0-16.3-7.3-16.3-16.3s7.3-16.3,16.3-16.3,16.3,7.3,16.3,16.3-7.3,16.3-16.3,16.3ZM90.7,160.4c-4,0-7.2,3.2-7.2,7.2s3.2,7.2,7.2,7.2,7.2-3.2,7.2-7.2-3.2-7.2-7.2-7.2Z"/>
          <path class="cls-2" d="M151.5,233.4c-9,0-16.3-7.3-16.3-16.3s7.3-16.3,16.3-16.3,16.3,7.3,16.3,16.3c0,9-7.3,16.3-16.3,16.3ZM151.5,210c-4,0-7.2,3.2-7.2,7.2s3.2,7.2,7.2,7.2,7.2-3.2,7.2-7.2c0-4-3.2-7.2-7.2-7.2Z"/>
          <path class="cls-2" d="M214.1,154c-9,0-16.3-7.3-16.3-16.3s7.3-16.3,16.3-16.3,16.3,7.3,16.3,16.3-7.3,16.3-16.3,16.3ZM214.1,130.6c-4,0-7.2,3.2-7.2,7.2s3.2,7.2,7.2,7.2,7.2-3.2,7.2-7.2c0-4-3.2-7.2-7.2-7.2Z"/>
          <path class="cls-2" d="M253.8,221.7c-9,0-16.3-7.3-16.3-16.3s7.3-16.3,16.3-16.3,16.3,7.3,16.3,16.3-7.3,16.3-16.3,16.3ZM253.8,198.3c-4,0-7.2,3.2-7.2,7.2s3.2,7.2,7.2,7.2,7.2-3.2,7.2-7.2-3.2-7.2-7.2-7.2Z"/>
          <path class="cls-2" d="M309.3,292.8c-9,0-16.3-7.3-16.3-16.3s7.3-16.3,16.3-16.3,16.3,7.3,16.3,16.3c0,9-7.3,16.3-16.3,16.3ZM309.3,269.4c-4,0-7.2,3.2-7.2,7.2s3.2,7.2,7.2,7.2,7.2-3.2,7.2-7.2-3.2-7.2-7.2-7.2Z"/>
          <path class="cls-2" d="M146,206.9l-44.1-35.9c-.9,3.1-3,5.6-5.7,7l44.1,35.9c.9-3.1,3-5.6,5.7-7Z"/>
          <path class="cls-2" d="M243.6,211.2c-1-1.7-1.6-3.6-1.6-5.7s.2-2.2.5-3.3l-81,9.3c1,1.7,1.6,3.6,1.6,5.7s-.2,2.2-.5,3.3l81-9.3Z"/>
          <path class="cls-2" d="M306.2,265.3l-42.2-54.1c-1.5,2.7-4.1,4.8-7.2,5.6l42.2,54.1c1.5-2.7,4.1-4.8,7.2-5.6Z"/>
          <path class="cls-2" d="M204.7,144.7c-1.4-1.9-2.3-4.3-2.3-6.9s0-1.3.2-1.9l-102.5,24.8c1.4,1.9,2.3,4.3,2.3,6.9s0,1.3-.2,1.9l102.5-24.8Z"/>
          <path class="cls-2" d="M223.5,144.8c-1.8,2.5-4.6,4.2-7.8,4.6l28.8,49.1c1.8-2.5,4.6-4.2,7.8-4.6l-28.8-49.1Z"/>
          <path class="cls-2" d="M265.7,273.7h-4.2v-4.2c0-2.6-2.1-4.7-4.7-4.7s-4.7,2.1-4.7,4.7v4.2h-4.2c-2.6,0-4.7,2.1-4.7,4.7s2.1,4.7,4.7,4.7h4.2v4.2c0,2.6,2.1,4.7,4.7,4.7s4.7-2.1,4.7-4.7v-4.2h4.2c2.6,0,4.7-2.1,4.7-4.7s-2.1-4.7-4.7-4.7Z"/>
          <path class="cls-2" d="M233.5,297.1h-4.2v-4.2c0-2.6-2.1-4.7-4.7-4.7s-4.7,2.1-4.7,4.7v4.2h-4.2c-2.6,0-4.7,2.1-4.7,4.7s2.1,4.7,4.7,4.7h4.2v4.2c0,2.6,2.1,4.7,4.7,4.7s4.7-2.1,4.7-4.7v-4.2h4.2c2.6,0,4.7-2.1,4.7-4.7s-2.1-4.7-4.7-4.7Z"/>
          <path class="cls-2" d="M220,278.8c-6.4,0-11.6-5.2-11.6-11.6s5.2-11.6,11.6-11.6,11.6,5.2,11.6,11.6c0,6.4-5.2,11.6-11.6,11.6ZM220,264.6c-1.4,0-2.5,1.1-2.5,2.5s1.1,2.5,2.5,2.5,2.5-1.1,2.5-2.5-1.1-2.5-2.5-2.5Z"/>
          <path class="cls-2" d="M125.8,261.1h-4.2v-4.2c0-2.6-2.1-4.7-4.7-4.7s-4.7,2.1-4.7,4.7v4.2h-4.2c-2.6,0-4.7,2.1-4.7,4.7s2.1,4.7,4.7,4.7h4.2v4.2c0,2.6,2.1,4.7,4.7,4.7s4.7-2.1,4.7-4.7v-4.2h4.2c2.6,0,4.7-2.1,4.7-4.7s-2.1-4.7-4.7-4.7Z"/>
          <path class="cls-2" d="M315.1,93.5h-4.2v-4.2c0-2.6-2.1-4.7-4.7-4.7s-4.7,2.1-4.7,4.7v4.2h-4.2c-2.6,0-4.7,2.1-4.7,4.7s2.1,4.7,4.7,4.7h4.2v4.2c0,2.6,2.1,4.7,4.7,4.7s4.7-2.1,4.7-4.7v-4.2h4.2c2.6,0,4.7-2.1,4.7-4.7,0-2.6-2.1-4.7-4.7-4.7Z"/>
          <path class="cls-2" d="M282.8,110.7h-4.2v-4.2c0-2.6-2.1-4.7-4.7-4.7s-4.7,2.1-4.7,4.7v4.2h-4.2c-2.6,0-4.7,2.1-4.7,4.7s2.1,4.7,4.7,4.7h4.2v4.2c0,2.6,2.1,4.7,4.7,4.7s4.7-2.1,4.7-4.7v-4.2h4.2c2.6,0,4.7-2.1,4.7-4.7s-2.1-4.7-4.7-4.7Z"/>
          <path class="cls-2" d="M94.7,249.7c-6.4,0-11.6-5.2-11.6-11.6s5.2-11.6,11.6-11.6,11.6,5.2,11.6,11.6c0,6.4-5.2,11.6-11.6,11.6ZM94.7,235.6c-1.4,0-2.5,1.1-2.5,2.5s1.1,2.5,2.5,2.5,2.5-1.1,2.5-2.5c0-1.4-1.1-2.5-2.5-2.5Z"/>
          <path class="cls-2" d="M299.8,149.4c-6.4,0-11.6-5.2-11.6-11.6s5.2-11.6,11.6-11.6,11.6,5.2,11.6,11.6c0,6.4-5.2,11.6-11.6,11.6ZM299.8,135.2c-1.4,0-2.5,1.1-2.5,2.5s1.1,2.5,2.5,2.5,2.5-1.1,2.5-2.5-1.1-2.5-2.5-2.5Z"/>
        </g>
      </g>
    </g>
  </g>
</svg>